<svg version="1" xmlns="http://www.w3.org/2000/svg" width="5904" height="5904" viewBox="0 0 4428.000000 4428.000000"><path d="M2371.9 647.3l-29.6 13.3-27.4 19.9c-22.9 16.6-31.3 23.5-51.4 41.9-24 22-24 22-47.7 52-22.8 28.9-24.4 31.2-45.1 65.5l-21.4 35.6L2134 911c-13 30.4-16.6 40-25.1 67-14.9 47.1-20.9 72.3-25.9 107.8-2.2 16.1-5.9 44.6-8 63.3-2.2 18.8-4.2 34.5-4.6 35-.3.5-2.3 1.8-4.3 2.9-4.6 2.3-3.5 3.3-14.5-12.4l-7.8-10.9-5.8-45.6c-12.9-100.8-16.7-123.8-26.5-161.6-7.4-28.6-23.1-69.2-43.3-111.5-12.6-26.5-18.2-37-35.8-66.2-20.4-33.9-21.3-35.2-36.4-52.5-12.6-14.6-19.9-21.7-39.8-39.2-23.4-20.5-25.1-21.8-40.8-30.6-11.8-6.7-20.2-10.6-29.8-13.9l-13.4-4.6h-63.4l-5.1 4.4c-4.1 3.4-8.6 5.7-21.1 10.5-15.5 6-16.1 6.3-29.6 16.9-13.8 10.8-14 11-28.6 30.8-13.2 17.8-16.3 22.8-29.1 47.1-12.9 24.6-14.3 27.7-14.3 32.2 0 3.4.4 5.1 1.3 5.1.6 0 12.5-1.1 26.2-2.5 13.8-1.4 25.5-2.5 26.1-2.5.8 0 25.1-31.3 30.8-39.7.1-.1 6.3 1.4 13.9 3.4l13.7 3.6 13-5.3c7.2-2.9 13.2-5.1 13.5-4.9.2.3-3.8 10-8.9 21.6l-9.3 21.1 12.2 3.6c6.7 2 13.6 3.9 15.3 4.2 2.9.6 4.4-.7 28.2-23l25.2-23.6h21.8v15.6l-17.9 16.5c-17.4 15.9-17.9 16.5-18 20.4v4l32.1 20.4 32.1 20.4 11.1-3.6c10.4-3.5 12-3.7 23.5-3.7 12.3 0 12.3 0 11.8 2.2-.4 1.3-1.1 5.6-1.8 9.6-.7 4.1-1.8 8-2.5 8.7-.7.7-5.4 3.8-10.4 7-5.9 3.7-8.9 6.2-8.6 7.1.3.7 3.1 5 6.2 9.4l5.7 8.2 4.6-4.6 4.7-4.6h21.1l7.2 18.9c3.9 10.4 7.1 19.1 7.1 19.3 0 .2-3.8 3.1-8.5 6.3-8.1 5.5-8.5 6-8.5 9.6 0 3.2 1.1 5 8.6 13.9l8.6 10.1-2.6 6.1c-1.5 3.4-2.3 6.4-1.8 6.7.4.3 2.4 1.6 4.4 2.8 1.9 1.3 8 7.4 13.4 13.5 5.4 6.2 15.3 16.8 21.8 23.6l12 12.3-2.3 12-2.3 11.9 4.6 10.8 4.7 10.8 8.2 2.2c7.3 2.1 9 3 16.3 9.3l8.1 7 1.3 8.5 1.2 8.5-4.6 5.9c-4.1 5.2-4.6 6.4-4.6 11 0 4 .8 6.6 3.4 11.3 1.9 3.4 4.6 10.1 6 14.9 2.5 8.3 2.9 8.9 10 15.5 4.1 3.8 9.3 9.8 11.5 13.4 4 6.3 4.1 6.6 4.1 15.5v9.1l-8 2.4c-4.4 1.2-8 2.6-8 2.9 0 .4 1.5 2.7 3.4 5.1 1.8 2.5 5.3 8.3 7.6 12.9l4.3 8.5-2.7 5c-5.2 9.4-4.2 9.1-13.7 4.7-4.6-2.1-16.3-8.7-25.9-14.7-9.6-5.9-23.6-14.2-31-18.3-7.4-4.2-19.2-11.1-26.2-15.4-18.8-11.5-44.9-24.2-74.3-36.3-4.9-2-13.8-6.4-19.7-9.6-10.6-5.9-28.9-13-63.8-24.6-9.1-3.1-21.4-7.3-27.5-9.4-10.9-3.9-39.6-10.8-81.5-19.5-20.4-4.2-23.9-4.7-71-8.3l-49.5-3.9-43.5 4.4c-23.9 2.5-51.6 5.1-61.5 5.9-21.2 1.6-18.7.8-82 24.8-39.6 15-42 16.1-69.5 30.8-15.7 8.4-40.8 22.8-55.8 32.1-38.9 24.1-64.5 42.7-97.5 71.1-15.3 13.2-36.9 31-48 39.7-21.5 16.8-16.5 11.9-118.4 117.1l-10.3 10.6 8.6 4.4c8.5 4.4 8.5 4.4 10.2 2.4.9-1.2 10-11.2 20.2-22.4 15-16.5 19.5-20.8 23.9-23.1l5.5-2.8 4.4 2.2 4.3 2.1-.6 12c-.3 6.6-.8 14-1.1 16.4l-.6 4.4 11.4-.5 11.3-.5 27.7-14.2 27.7-14.2 4.9-12.7c7.4-19.1 8.4-22.2 19.1-56.4l9.8-31.7 9.9-12c5.4-6.6 10.2-11.9 10.6-11.8.4.1 3 2 5.8 4.2 6 4.7 5.7 1.2 3.2 41.3l-1.7 27.3 4 3.7c7.2 6.7 9.5 8.6 10 8 .3-.3 4.5-9.6 9.4-20.6 8.7-19.9 8.9-20.2 17.6-29.7 4.8-5.2 9-9.5 9.4-9.5.3 0 1.9 1.9 3.5 4.2l2.9 4.1-1.2 24.4c-.7 13.4-1.1 24.7-.7 25 .3.3 7 .1 15-.6 7.9-.6 17.3-1.1 20.8-1.1 3.6 0 7.1-.5 8-1.3.8-.6 3.7-8.9 6.3-18.2 2.6-9.4 9.6-30.5 15.5-47 9.8-27.4 11.8-32.1 23.6-54.5l13-24.5 8.9-6.8 9-6.7 2.3 7.6 2.3 7.6-4.1 17.2c-2.2 9.4-6.5 23.8-9.5 32.1-4.4 12-6.4 19.5-9.8 37.7-2.4 12.6-4 22.8-3.5 22.8.9 0 34.8-5.9 36.1-6.3.4-.1 4.9-8.1 10-17.7l9.2-17.5 5.2-.3 5.3-.3.2 23.2.3 23.1 7.3-5.6c4-3.1 12-8.6 17.8-12.3 5.8-3.7 10.9-7.6 11.3-8.7.4-1.2 2.2-10.5 4-20.9l3.3-18.7 11.7-22.8c6.5-12.5 15.7-29.6 20.6-38l8.8-15.4 12.5-10.6c6.8-5.9 12.7-10.8 13.1-10.9.8-.3 12.1 18.1 12.1 19.6 0 .6-5.2 11.5-11.5 24.2l-11.6 23-6.6 41.9c-3.7 23.1-6.5 42.1-6.2 42.4.5.4 32.1 3.7 32.4 3.3.2-.1 12.9-17.2 28.3-38 15.5-20.7 28.8-37.7 29.5-37.7.7 0 6.2.7 12.1 1.5 10.7 1.5 10.9 1.6 19.7 7.7 6.4 4.4 8.9 6.7 8.9 8.2 0 1.2-1.8 14.1-4 28.9-2.2 14.7-4 26.9-4 27.2 0 .5 15.4 8.4 21.1 10.8l3.6 1.5 14.3-20.9c10.4-15.3 14.7-20.8 15.9-20.5 5.4 1.6 19.5 3.6 20 2.9.3-.5 7.9-11.8 16.9-25.1l16.3-24.3 4.2.6c13.5 2.1 16.2 3 16.4 5.5.2 1.4-.5 11.3-1.5 22s-1.7 19.7-1.5 19.9c.2.3 9.4-5.6 20.6-13.1 14.6-9.9 27.2-17.3 45.6-26.8 13.9-7.2 25.7-12.8 26.1-12.3.5.4 2 4.6 3.4 9.2l2.7 8.5-14.8 24.4c-8.1 13.5-14.9 24.8-15.1 25.3-.2.4 4.5.5 10.5.2 8-.4 17.5-2 37.2-6.5 14.5-3.2 26.4-5.8 26.6-5.6 1 1.3 4.4 18.3 3.8 18.8-.4.4-28.5 12.2-62.3 26.2-59.4 24.7-62.4 25.8-87 32.6-15.3 4.3-41.3 10.3-65.1 15.2l-39.6 8.1-57.9 22.8-57.9 22.8-71.3 40.9-71.2 40.9-54.6 38.5-54.6 38.4-16.7 17.4c-9.1 9.6-23.6 23.8-32.1 31.5-8.5 7.8-24.9 23.4-36.4 34.7l-20.8 20.5-47.6 63c-53.6 71-56.3 74.5-120.5 152.5-25.5 31.1-46.3 56.6-46.2 56.8.2.2 35.8-17.9 79.2-40.3l78.9-40.6 51.5-69.9 51.4-70h8c4.4 0 9.7-.3 11.9-.7l3.8-.6-25.8 50.9c-14.2 28-25.1 50.4-24.3 49.8 6.5-4.9 55.8-39.4 56.2-39.4.4 0 4.1 2 8.3 4.5 4.1 2.5 8 4.5 8.5 4.5s.9-2.4 1-5.3c0-5.1.7-6.2 34.7-59.2l34.8-54 11.3-5.8c6.2-3.3 11.6-5.5 12-5 .4.4 1.7 4.2 3 8.3l2.2 7.5-9 22.4-9 22.4 13.7-.5 13.7-.4 12.5-9.1c12-8.8 12.9-9.2 24-12.2 6.3-1.7 12.5-3.6 13.8-4.1 1.3-.6 8.2-5.6 15.3-11.1l12.9-10.1 13.3 4 13.2 3.9 7.6-8.1c4.2-4.4 8.7-9.3 10-10.8l2.4-2.6 18.8-.5c16.7-.3 18.7-.2 18.3 1.2-.3.9-1.7 7.9-3.1 15.6l-2.7 14-48 43-47.9 43 5 .3 5.1.3v3.6c0 2.8-2 6.7-9.6 18.4-5.3 8.2-10.3 15-11.3 15.3-.9.3-7.4 1.8-14.4 3.5-9.3 2.2-14.1 3.9-17.3 6.1l-4.4 3.1v37.4l-25.5 32.7-25.5 32.7v33.3l-9.4 9.9-9.3 9.9-.7 8.7c-.4 5.2-6.4 34.8-15.1 74.3l-14.4 65.7 1.9 26.9c1.1 14.8 3.6 44.4 5.6 65.9 3.4 36.7 3.9 40.6 9.3 65.8l5.8 26.7-3.7 22-3.7 22 4.7 3 4.6 3 2.6 23.6c1.5 13 2.8 23.7 3 23.9.2.2 1.6.5 3.2.7l2.9.3 11.7-40 11.6-40-1.2-99c-.7-54.5-1.3-104.4-1.3-111l-.1-12 11.3-6.8c6.1-3.6 11.3-6.3 11.4-5.9.1.4 2 24.3 4.3 53.2 2.2 28.9 4.2 53.2 4.4 54 .2.8 7.6-13.3 16.5-31.4l16.2-33 9.5-31.6 9.4-31.6v-155l6.5-6.4c3.5-3.5 6.6-6.2 6.8-5.9.3.2 5.7 28.5 12.1 62.9 6.4 34.4 12 63.3 12.4 64.3.6 1.4 9.9-14.6 37.1-63.5l36.3-65.3 3.4-73.4 3.4-73.3 5.9-6.7c10.8-12.1 8.6-18.7 16.6 52 6.6 59.5 7 61.9 8.8 61.3 1.1-.4 5.8-2.4 10.4-4.5l8.3-3.8-.5-5.3c-1.1-10.8-5.6-98-5.2-99.2.6-1.4 19.5-10.2 20.2-9.4.3.3 5.3 18.7 11.1 40.9s10.8 40.6 11 40.8c.2.2.4-12.4.4-28v-28.4l12.4-2.9 12.5-2.9.5-3.6c.3-2 1.7-13 3.1-24.6 1.5-12.3 3.1-21.5 3.9-22.5.7-.8 29.8-35.3 64.6-76.5 34.8-41.3 64.4-76.1 65.7-77.5l2.4-2.5-2.7 6c-32.5 73.9-116.3 265.1-122.4 279.5-6.8 16-9.3 20.8-14 26.5-3.1 3.8-6 7.6-6.4 8.3-.4.7.7 4.3 2.5 8.2l3.2 7-2.3 13.4-2.3 13.4-5.3 1.8-5.2 1.8-2.7 13.8c-1.5 7.5-2.4 14.2-2.1 14.6.3.5 2.9 2.6 5.8 4.6 4 2.7 6.2 5.2 8.7 10l3.4 6.4-11.2 11.9c-9 9.5-12.7 14.5-19.5 25.8-8.2 13.6-8.5 14.4-11.5 28-1.8 7.7-5.4 20.1-8.1 27.5-4.3 12.1-4.9 14.8-5.9 26.5l-1 13 4.4 3.9c4.5 3.8 4.5 3.8 4.5 10.6 0 8.3-3 15-21.9 49-12.6 22.5-13.1 23.7-13.1 29.3 0 8.2 3.8 15.7 7.9 15.7 1.6 0 3.6.2 4.3.5.9.4 4.1-2.8 8.7-8.5 4-4.9 7.6-9.2 8.1-9.5.7-.5 15 1.9 19.3 3.1 1.7.5 1.8 1.4 1.1 10.7-.7 9.7-.9 10.4-4.4 15.2-3.5 4.7-23.5 42.4-22.8 43 .2.1 9.3-7.1 20.3-16.1 11-9 20.3-16.4 20.6-16.4.3 0 1.5 5.2 2.7 11.7l2.2 11.6-12.9 23.3-13 23.3-2.3 24.9-2.2 24.8 4.8 19.5c2.7 10.7 5.2 20 5.6 20.8.5 1 4.6-4.3 12.8-16.7l12.1-18 5.8-1.2c3.2-.6 6.8-1.4 8-1.7 1.9-.4 2.2 0 2.7 3.9 1.1 8.5 7.7 140.8 7.2 141.7-.4.5-4.5 3.3-9.2 6.2-4.6 2.9-8.7 5.6-9 6-.2.4.5 18.4 1.6 39.9l2 39.1 22.1 55.2c12.1 30.4 22.4 55.6 22.8 56 .4.4 1.7-5.4 2.9-12.9 1.2-7.6 2.4-13.9 2.5-14.1.2-.1 7 2 15.2 4.7 8.2 2.8 15.1 5 15.2 5 .2 0 .3-44.2.3-98.2v-98.3l-21-68.8-21.1-68.8 3.1-14.7c1.8-8.1 3.4-15.5 3.7-16.5.3-1.2 3.3 3 9.5 13.5 5 8.4 9.7 16.4 10.6 17.7 1.4 2.4 1.7 1.9 6.2-13.7l4.8-16.2-6.9-27.2c-3.8-15-6.9-27.6-6.9-28 0-.5 4.4-2.8 9.7-5.3 5.3-2.5 9.8-4.7 10-4.9.3-.2-2-5.3-5.1-11.3l-5.5-11-2.5-26.9c-1.4-14.8-2.8-28.7-3.1-31l-.6-4.1 8.3-5.1c4.6-2.8 8.6-4.8 9-4.4.3.4 7 16.4 14.8 35.7 7.8 19.2 14.8 36.1 15.6 37.5 1.1 2.2 1.3-.1 1.4-16.8V2216l4.1-1.6c2.2-.9 3.8-2.2 3.6-2.8-.3-.6-3.8-8.8-8-18.1l-7.5-17 3.6-43c1.9-23.7 3.6-43.1 3.8-43.3.1-.2 14.9 8.9 32.9 20.3 18 11.3 33 20.5 33.4 20.3.4-.2 3.2-2.1 6.4-4.3l5.7-4v-22.2l10.2-7.4c5.6-4.1 10.6-7.7 11.2-8.1.7-.4.4-2.5-.7-6.1l-1.7-5.4 8-18.9 8-18.8-32.9-67.4-32.9-67.4 6.1-18.3c3.4-10.1 6.5-18.1 7-17.8 1 .6 59.3 78.3 63.3 84.3 1.5 2.2 3.2 4 3.9 4 .6 0 7.1-5.7 14.3-12.8l13-12.7-5.5-29.3c-3.1-16.1-5.4-29.5-5.1-29.7.2-.3 3.2-.8 6.6-1.1 3.4-.4 6.2-.9 6.2-1.1 0-.2-2.7-9.8-6-21.3l-6-20.9v-27.2l16 19.5c8.9 10.7 16.5 19.8 17 20.1.6.4 1-.4 1-1.7 0-4 8.2-108.3 8.5-108.6.2-.2 2.8 1.5 5.9 3.8l5.6 4.2 10.2-.6c17.8-1.2 34.9-3.7 43.4-6.6 8.6-3 16-7.5 35.1-21.6 10.7-7.9 11.9-9.2 24.1-25.6l12.9-17.3 6.2-16.4 6.1-16.3v-45.1l3.1-5.3c1.7-3 3.6-5.4 4.2-5.4.7 0 11.9 2.8 25 6.2l23.9 6.3 4.9 6.7 5 6.6-3.5 5.4c-1.9 2.9-6.9 9.1-11.1 13.8-11.1 12.2-23.5 29.1-29 39.3-6.5 12.1-11.5 28.9-11.5 38.9 0 20.3 11.8 55.4 23.5 69.6 5.5 6.7 5.9 7 20.7 13.7 9.2 4.2 16.2 6.8 17.9 6.7 1.6-.1 14.4-2 28.6-4.2l25.8-4 21.1-11.5c11.6-6.3 21.6-11.5 22.1-11.5.6 0 4.7 4.5 9.3 10.1 4.5 5.5 8.3 9.9 8.5 9.7.1-.2 1.5-5 2.9-10.8 1.5-5.8 3.1-12.1 3.6-14 .6-2.3 2.5-4.8 5.4-7.3l4.5-3.7 6.8 1.6c3.7.9 7.1 2 7.5 2.3.4.4-.6 18.8-2.2 40.9l-3 40.3 23.2 49.5c12.7 27.1 23.3 49.2 23.6 49 .2-.2 3.8-11.6 8.1-25.3l7.7-24.8 7.6-2.7 7.7-2.7.5 3.2c.3 1.8 1.4 17 2.5 33.9l2.1 30.8-14 32.2c-7.7 17.7-13.9 32.6-13.7 33.1.2.6 3.6 2.2 7.7 3.6l7.4 2.6 2.7 12.6c2.1 10.2 3.4 13.8 6.4 18.8 2.1 3.4 4.2 6.4 4.6 6.6.3.3 1.4-2.6 2.3-6.3 1.5-5.8 16.1-37.2 17.4-37.2.2 0 2.2 1.4 4.3 3.1l3.9 3.1v51.3l8.5 5.8 8.5 5.8v42.1l-4.1 8.7c-3 6.3-4.8 12.5-7 23.4l-3 14.8 5 15.2 5.1 15.2v19c0 10.5.9 31.4 1.9 46.5 1.8 26.1 2.3 29.6 9.7 69.5l7.9 42 .3-226.5.2-226.4-4-14.1c-3-10.6-4.9-21-7.9-42.5-3.8-27.5-4.1-29-9.4-43.5-4.8-13.1-5.9-17.8-9.2-37.8-2-12.6-3.4-23.1-3.2-23.4.8-.7 20 3.8 21.4 5.1.6.6 8.7 14.1 18 30.1 9.3 15.9 27.9 45.4 41.3 65.5l24.4 36.5 18.1 41.5 18.1 41.5 25.6 40 25.7 40 6 23.4 6 23.3 17.1 31.6c9.7 17.9 18.7 35.8 20.7 41.2 1.9 5.2 10.2 33.1 18.4 62l15 52.4 12.8 25.6 12.8 25.5 4.6 19c6.6 27 12.7 56.4 21.1 101.7l7.4 39.4 14.2 30.5 14.3 30.4 4.3 37.5c2.3 20.6 6.1 51.7 8.3 69 2.2 17.3 5.6 46.8 7.6 65.5l3.6 34 11.6 42 11.5 42 1.4 53c.7 29.1 1.8 73.2 2.3 98l.9 45 6.3 31.7 6.2 31.7-1.3 12c-.7 6.6-1.6 12.5-2.1 13.3-.7 1-265.1 6.8-1384.6 30.1-761.1 15.9-1384 29-1384.2 29.3-.9.9 15.3 67.5 25.9 106.2 58.8 215.2 150 419.6 272.2 609.9l13 20.3h1849.7c1760.4 0 1849.7-.1 1850.7-1.8 35.4-55.2 52.9-83.9 73.6-120.2 71.9-126.3 129.9-255.9 175.3-392.5 15.2-45.5 22-67.9 34.9-114 9.1-32.7 20.3-78.4 29-118.5 7.1-32.7 15.9-79 15.2-79.7-.4-.4-1274.9 25.5-1424.6 28.9l-11.5.3-2.7-12.4-2.7-12.4 1.9-5.1c1.1-2.8 3.3-12.3 5-21.1 5.7-30.5 3.8-61.8-7-117.3-3.4-16.9-7.4-39.9-9.1-51.2-2.2-15-5-28.2-10.5-49.2-5.9-23-7.4-30.1-7.4-36 0-4-.9-21.7-2-39.3-2.6-40-3.7-45.7-24.2-126.5-11.8-46.6-17.7-67.6-27-96.5l-11.9-37-2-21.5c-1.9-19.5-2.6-23.7-8.1-44.5-5.4-20.6-7.7-27.2-22.4-63.7-13.7-34.3-16.9-43.2-20.2-56.8l-3.9-16.2-7.7-7.7-7.6-7.6v-7.5c0-4.1-1.5-16.5-3.4-27.5-2.8-16.8-4.2-22.1-8.4-33-8.9-23.2-22.6-50.1-51.3-100.2l-9.8-17.1-2-12.4c-2.5-15.8-4.5-20.4-43.5-96-28.5-55.5-30.9-59.8-62.7-111.5-18.2-29.6-39.7-66-47.7-80.8-13.7-25.4-16.1-29.1-40.6-63-14.3-19.8-43.8-59.2-65.7-87.6l-39.7-51.6-4.1-23.5c-2.3-12.9-4.1-24.2-4.1-25.2 0-1.9 8.7-16.6 9.9-16.6 2.5.1 40.5 11.1 41 11.9.3.5 2.4 7.9 4.6 16.5l4 15.6h20l9.4 9.4 9.3 9.4 8.7.6c18.1 1.4 14.7-1.1 32.2 23.2 8.5 11.7 15.7 21.4 16 21.4.3 0 1.2-4.8 1.9-10.8.7-5.9 1.8-11 2.4-11.4.6-.4 5.2-.8 10.1-.7h9l13.5 9.4 13.5 9.5.3-6.1c.3-5.6-.4-7.7-8.2-27.4l-8.4-21.3 1.4-10.8c.8-5.9 1.5-10.8 1.6-10.9.2-.1 4-.5 8.4-.8l8.2-.5 9.8 13.7c10.4 14.5 10 13.8 37.2 72.1 16.5 35.3 16.6 35.6 19.6 50.5l3.1 15 11.4 1.7 11.3 1.8 11.6 11 11.7 11.1 9.6-.7 9.7-.6 7.3 10.9 7.4 10.8h8.7c4.7 0 8.9-.3 9.3-.7.4-.4-8.6-22-19.9-48.1l-20.6-47.4v-16.4l5.7.7c3.1.4 6.8 1 8.2 1.3 1.9.5 11.2 13.2 37.9 51.7l35.4 50.9 5.1.5c4.1.5 8 2.2 18.4 8.2l13.3 7.7 11.6 1.4 11.6 1.4-.6-4.6c-.4-2.5-.9-7.1-1.3-10.3l-.6-5.6 6.4-.4c5.2-.3 8.1.1 15.4 2.6l9 3 27.4 28.8c23.3 24.5 27.7 28.8 30.1 28.8 1.6 0 3.1-.4 3.4-.9.3-.5-3.9-12.7-9.3-27.2-7.1-18.9-14-35-24.6-56.8l-14.7-30.3-21.6-31.1-21.7-31-69.2-59.1-69.2-59.1-42.7-24c-23.5-13.2-50.6-28.4-60.3-33.8-16.9-9.5-21.2-11.3-130.3-53.8l-112.7-44-36.3-10.4c-33.7-9.8-86.4-27.9-89.5-30.9-1.5-1.5-17.3-29-16.8-29.4.2-.2 42.5-3.5 94.1-7.3 51.7-3.8 94.2-7 94.6-7.1.4-.2-5.4-8.3-13-18.1l-13.8-17.7-2.3-9.6c-2.7-11-2.5-11.4 5-11.4 2.6 0 6-.3 7.6-.6 2.8-.5 4.4 1 33.9 33l30.9 33.6 9.5-.5c5.2-.3 12.7-.8 16.5-1l7-.5 6.5 5.5 6.5 5.4.5-4.7.5-4.7 9-.6 9-.6 4.8 4.3 4.9 4.4 3.6-2.9c2.7-2.1 5.3-3.1 9.7-3.6l6-.7 9.3 9.8c5.1 5.5 9.5 9.4 9.8 8.9.2-.6 1.8-3.1 3.4-5.6l2.9-4.7 11-.7c6.1-.4 11.1-.8 11.1-1 0-.2-12.8-21.4-28.3-47.2-15.6-25.7-28.9-47.9-29.6-49.2-1.1-2-.9-3.8 1-11.3 1.3-5 2.8-9.2 3.5-9.5.6-.2 5.6.2 11 .9l9.9 1.3 39.3 50.5 39.3 50.5 9.2.8c5.1.4 11.1.6 13.5.5l4.2-.3-8.5-14.2-8.5-14.1v-18.9l6.1-.7c3.4-.3 8.3-.6 10.8-.6h4.6l7.9 10.1c4.3 5.5 8 9.9 8.2 9.7.2-.2-1.1-4.8-2.8-10.1-2.1-6.2-2.9-10-2.3-10.6.6-.6 5.4-1.1 10.7-1.2l9.8-.2 19.5 25.5 19.5 25.4 55.6 1.3c30.6.7 55.7 1.1 55.9.9.2-.2-13.4-15-30.1-33l-30.4-32.7v-14.9l7.3-.6c3.9-.3 10.5-.7 14.5-1l7.2-.5 51.1 58.7c28.2 32.3 51.7 59.2 52.3 59.9.8.8 4.9.9 15.1.4 12.9-.7 15.8-.5 37.5 2.6 12.9 1.8 24.3 3.5 25.3 3.7 1 .3 1.7.1 1.5-.4-.2-.5-9.4-12.1-20.6-25.9-11.2-13.8-22.5-28.8-25.3-33.4l-4.9-8.2 3.6-3.1 3.6-3 9.6 1.2c6.4.8 13.6 2.6 21 5.3 6.2 2.3 11.7 4.1 12.2 4.1.6 0-6-6.9-14.6-15.3l-15.6-15.2-34.6-20.4c-19.1-11.2-55.3-31.6-80.4-45.2l-45.6-24.8-44.9-18-44.8-18.1-58.8-14-58.8-14h-45.7c-37.9 0-52.7.4-86.7 2.6l-41 2.6-37.5 7.9-37.4 8-45.6 16.5c-38.7 14-52.2 19.5-90.5 36.7l-45 20.1-36 24.5-36 24.5-7.5.7c-4.1.4-9.3.8-11.6.8l-4.1.1-1.2-7.3c-.7-3.9-1.4-7.9-1.7-8.8-.3-1 4.4-6 13.6-14.4 7.7-7.1 13.9-13.3 13.7-13.8-.1-.5-4.3-3-9.2-5.5l-9-4.7-.3-7.3c-.2-4.6.2-7.9.9-8.8.6-.8 6.3-5.1 12.6-9.5 6.3-4.5 11.1-8.4 10.8-8.8-.4-.3-6.8-2.7-14.3-5.2l-13.7-4.6-.3-11.4-.3-11.5 4.3-3c2.4-1.7 9.1-6.5 15-10.8l10.7-7.7 10.2-.7 10.2-.7 14.3-19.5 14.3-19.5-12.2-11.7-12.2-11.8 5.7-5.2c3.1-2.9 9-8.3 13-11.9l7.3-6.7 11-2.2c6.1-1.2 11.7-2.3 12.6-2.6.9-.2 5 2.5 9.9 6.7l8.4 7.1 1.2-5.4c.7-2.9 1.7-8 2.4-11.2l1.2-5.9 13.2.6 13.1.6-11.8-11.4-11.9-11.5 1.2-7.2c.6-4 1.3-8.5 1.6-10.1l.6-2.7h42.8l3.9-8.5c2.8-6.1 4.5-8.5 5.8-8.5 3.1 0 37.5-3.9 37.9-4.2.2-.2-.4-5-1.2-10.7-.9-5.6-1.3-10.5-1-10.8.3-.3 8.2-3.3 17.6-6.7 9.4-3.5 17-6.7 17-7.2-.1-.5-5.9-5.8-12.9-11.8-6.9-6-14.3-12.4-16.4-14.3l-3.8-3.4.3-11.2.3-11.2 15.5-8.7c8.5-4.8 16-8.7 16.5-8.7.6 0 9.3 6 19.5 13.4l18.5 13.4 2.3-4.5c1.2-2.4 2.5-4.4 2.8-4.4 1.1 0 27.9-3.2 28-3.3.1-.1-8.7-10.3-19.6-22.6l-19.8-22.4 3.4-6.9c2.9-5.8 3.7-6.7 5.2-5.9.9.5 15.1 9 31.4 18.9l29.7 18 57.8-6.5c31.8-3.6 58.2-6.9 58.6-7.3.4-.4-12.1-15.3-27.9-33.1-15.7-17.8-29.3-33.2-30.1-34.1-1.3-1.5-.9-2.4 3.7-9.3 5.1-7.6 5.2-7.6 8.8-7.1 2 .3 6.7.8 10.3 1.1l6.6.6 44.4 52.1c24.4 28.6 45 52.7 45.6 53.6 1.1 1.4 2.6 1.4 14 .3 7.1-.7 13.8-1.5 15-1.8 1.5-.3 2.3.1 2.7 1.4.3 1 1.6 3 2.8 4.6 2 2.3 3.7 3 12.8 4.6 5.8 1.1 10.6 1.9 10.7 1.8 0-.1-7.3-12.3-16.3-27l-16.4-26.9v-19.9l23.3 20.4c20 17.7 23.2 20.1 23.5 18.2.3-2 1.7-2.6 12.8-5.4l12.4-3.1 5 2.5c2.8 1.4 12.8 9.5 22.3 18.1l17.2 15.5 13.6 24.2c7.5 13.3 14.1 24.7 14.7 25.3.5.6 7.9 2.1 16.5 3.4l15.6 2.4 23.9 21c13.1 11.6 31.2 27.6 40.1 35.5 13.4 11.9 16 13.8 14.8 11-.8-1.9-11.3-24.6-23.3-50.4l-21.8-47-15.9-23.9c-21.7-32.5-48.6-67.4-73.4-94.9-19.8-22-21.5-23.6-45.5-42.8-22.7-18.2-27.3-21.4-52.3-36.3-26.3-15.8-28.1-16.7-47-23.5l-19.7-7.1h-120.2l-120.1.1-29.6 13.2z"/></svg>